<svg width="20" height="20" viewBox="0 0 20 20" fill="none" xmlns="http://www.w3.org/2000/svg">
<path d="M5.11005 6.5498H14.8904C15.1391 6.54977 15.3849 6.60353 15.6109 6.70739C15.8369 6.81125 16.0378 6.96275 16.1998 7.15152C16.3617 7.34028 16.481 7.56183 16.5493 7.80099C16.6176 8.04015 16.6334 8.29126 16.5956 8.5371L15.5131 15.5685C15.4192 16.1796 15.1095 16.7368 14.6402 17.1393C14.171 17.5418 13.5731 17.763 12.9548 17.7628H7.04473C6.42663 17.7628 5.82896 17.5415 5.35987 17.139C4.89078 16.7365 4.58125 16.1794 4.4873 15.5685L3.40481 8.5371C3.367 8.29126 3.38281 8.04015 3.45113 7.80099C3.51946 7.56183 3.6387 7.34028 3.80067 7.15152C3.96264 6.96275 4.16352 6.81125 4.38952 6.70739C4.61553 6.60353 4.86132 6.54977 5.11005 6.5498Z" stroke="#0A3161" stroke-width="1.5" stroke-linecap="round" stroke-linejoin="round"/>
<path d="M7.4126 7.66524V4.27278C7.4126 3.73294 7.68522 3.21521 8.17049 2.83348C8.65577 2.45176 9.31394 2.2373 10.0002 2.2373C10.6865 2.2373 11.3447 2.45176 11.8299 2.83348C12.3152 3.21521 12.5878 3.73294 12.5878 4.27278V7.66524" stroke="#0A3161" stroke-width="1.5" stroke-linecap="round" stroke-linejoin="round"/>
<path d="M7.50049 12.8721H12.5005" stroke="#B31942" stroke-width="1.5" stroke-linecap="round" stroke-linejoin="round"/>
<path d="M10.0005 10.3721V15.3721" stroke="#B31942" stroke-width="1.5" stroke-linecap="round" stroke-linejoin="round"/>
</svg>
