<svg width="20" height="20" viewBox="0 0 20 20" fill="none" xmlns="http://www.w3.org/2000/svg">
<path d="M10 7.5V10.8333" stroke="#B31942" stroke-width="1.5" stroke-linecap="round" stroke-linejoin="round"/>
<path d="M8.63583 2.99249L1.88083 14.2708C1.74158 14.512 1.66789 14.7854 1.66709 15.0639C1.66629 15.3423 1.73842 15.6162 1.87629 15.8581C2.01416 16.1001 2.21297 16.3017 2.45295 16.443C2.69293 16.5842 2.96571 16.6602 3.24416 16.6633H16.7558C17.0342 16.6601 17.3068 16.5841 17.5467 16.4429C17.7865 16.3017 17.9853 16.1001 18.1231 15.8583C18.261 15.6165 18.3331 15.3428 18.3324 15.0645C18.3317 14.7861 18.2582 14.5128 18.1192 14.2717L11.3642 2.99166C11.222 2.75708 11.0218 2.56311 10.7829 2.42849C10.5439 2.29387 10.2743 2.22314 10 2.22314C9.72572 2.22314 9.45609 2.29387 9.21712 2.42849C8.97816 2.56311 8.77795 2.75708 8.63583 2.99166V2.99249Z" stroke="#0A3161" stroke-width="1.5" stroke-linecap="round" stroke-linejoin="round"/>
<path d="M10 13.3335H10.0083" stroke="#B31942" stroke-width="1.5" stroke-linecap="round" stroke-linejoin="round"/>
</svg>
