<svg width="20" height="20" viewBox="0 0 20 20" fill="none" xmlns="http://www.w3.org/2000/svg">
<path d="M17.4867 10.8986C17.5772 9.38062 17.204 7.87098 16.4167 6.56991C15.6295 5.26885 14.4653 4.23784 13.0786 3.61362C11.6919 2.9894 10.1482 2.80146 8.65229 3.07472C7.15634 3.34799 5.7788 4.06954 4.70235 5.1437C3.6259 6.21786 2.90142 7.59386 2.62497 9.08923C2.34853 10.5846 2.53318 12.1287 3.15445 13.5167C3.77572 14.9047 4.80425 16.0711 6.10363 16.8611C7.40302 17.6511 8.91186 18.0275 10.4301 17.9403" stroke="#0A3161" stroke-width="1.5" stroke-linecap="round" stroke-linejoin="round"/>
<path d="M13.3335 16.2856H18.3335" stroke="#B31942" stroke-width="1.5" stroke-linecap="round" stroke-linejoin="round"/>
<path d="M15.8335 13.7856V18.7856" stroke="#B31942" stroke-width="1.5" stroke-linecap="round" stroke-linejoin="round"/>
<path d="M10 6.28613V10.4528L12.5 12.9528" stroke="#0A3161" stroke-width="1.5" stroke-linecap="round" stroke-linejoin="round"/>
</svg>
