<svg width="20" height="20" viewBox="0 0 20 20" fill="none" xmlns="http://www.w3.org/2000/svg">
<path d="M14.1667 15.3583H10.8333L7.12498 17.8249C6.57498 18.1916 5.83332 17.8 5.83332 17.1333V15.3583C3.33332 15.3583 1.66666 13.6916 1.66666 11.1916V6.19157C1.66666 3.69157 3.33332 2.0249 5.83332 2.0249H14.1667C16.6667 2.0249 18.3333 3.69157 18.3333 6.19157V11.1916C18.3333 13.6916 16.6667 15.3583 14.1667 15.3583Z" stroke="#0A3161" stroke-width="1.5" stroke-miterlimit="10" stroke-linecap="round" stroke-linejoin="round"/>
<path d="M10 9.4668V9.29183C10 8.72516 10.35 8.42515 10.7 8.18348C11.0417 7.95015 11.3833 7.65016 11.3833 7.10016C11.3833 6.33349 10.7667 5.7168 10 5.7168C9.23334 5.7168 8.6167 6.33349 8.6167 7.10016" stroke="#B31942" stroke-width="1.5" stroke-linecap="round" stroke-linejoin="round"/>
<path d="M9.99626 11.4582H10.0038" stroke="#B31942" stroke-width="1.5" stroke-linecap="round" stroke-linejoin="round"/>
</svg>
