<svg width="24" height="24" viewBox="0 0 24 24" fill="none" xmlns="http://www.w3.org/2000/svg">
<path d="M10.4779 20H7.42595C6.6785 20 5.95574 19.7434 5.38847 19.2768C4.8212 18.8102 4.44689 18.1643 4.33328 17.456L3.02424 9.304C2.97852 9.01898 2.99763 8.72786 3.08026 8.45059C3.16289 8.17331 3.30708 7.91645 3.50295 7.6976C3.69882 7.47876 3.94173 7.30311 4.21504 7.1827C4.48835 7.06229 4.78559 6.99997 5.08637 7H16.9136C17.2144 6.99997 17.5117 7.06229 17.785 7.1827C18.0583 7.30311 18.3012 7.47876 18.4971 7.6976C18.6929 7.91645 18.8371 8.17331 18.9197 8.45059C19.0024 8.72786 19.0215 9.01898 18.9758 9.304L18.4542 12.552" stroke="#0A3161" stroke-width="1.5" stroke-linecap="round" stroke-linejoin="round"/>
<path d="M8 9V4.85185C8 4.09549 8.31607 3.37011 8.87868 2.83529C9.44129 2.30046 10.2044 2 11 2C11.7956 2 12.5587 2.30046 13.1213 2.83529C13.6839 3.37011 14 4.09549 14 4.85185V9" stroke="#0A3161" stroke-width="1.5" stroke-linecap="round" stroke-linejoin="round"/>
<path d="M15.6987 21.9994V16.7705" stroke="#B31942" stroke-width="1.5" stroke-linecap="round" stroke-linejoin="round"/>
<path d="M15.6987 16.7711L20.2635 14.1357" stroke="#B31942" stroke-width="1.5" stroke-linecap="round" stroke-linejoin="round"/>
<path d="M11.1343 14.1357L15.6991 16.7711" stroke="#B31942" stroke-width="1.5" stroke-linecap="round" stroke-linejoin="round"/>
<path d="M20.4046 18.8668V14.6743C20.4043 14.4919 20.3558 14.3128 20.2639 14.1551C20.1721 13.9974 20.0402 13.8668 19.8817 13.7765L16.2215 11.6808C16.0623 11.5898 15.882 11.542 15.6986 11.542C15.5152 11.542 15.335 11.5898 15.1758 11.6808L11.5156 13.7765C11.1919 13.9622 10.9927 14.3047 10.9927 14.6749V18.8673C10.9927 19.2381 11.1919 19.58 11.5156 19.7651L15.1758 21.8609C15.335 21.9518 15.5152 21.9997 15.6986 21.9997C15.882 21.9997 16.0623 21.9518 16.2215 21.8609L19.8817 19.7651C20.2054 19.5795 20.4046 19.237 20.4046 18.8668Z" stroke="#B31942" stroke-width="1.5" stroke-linecap="round" stroke-linejoin="round"/>
</svg>
