<svg width="20" height="20" viewBox="0 0 20 20" fill="none" xmlns="http://www.w3.org/2000/svg">
<path d="M9.16666 9.99984C9.16666 10.2209 9.25446 10.4328 9.41074 10.5891C9.56702 10.7454 9.77898 10.8332 10 10.8332C10.221 10.8332 10.433 10.7454 10.5893 10.5891C10.7455 10.4328 10.8333 10.2209 10.8333 9.99984C10.8333 9.77882 10.7455 9.56686 10.5893 9.41058C10.433 9.2543 10.221 9.1665 10 9.1665C9.77898 9.1665 9.56702 9.2543 9.41074 9.41058C9.25446 9.56686 9.16666 9.77882 9.16666 9.99984Z" stroke="#1F2937" stroke-width="1.5" stroke-linecap="round" stroke-linejoin="round"/>
<path d="M9.16666 15.8333C9.16666 16.0543 9.25446 16.2663 9.41074 16.4226C9.56702 16.5789 9.77898 16.6667 10 16.6667C10.221 16.6667 10.433 16.5789 10.5893 16.4226C10.7455 16.2663 10.8333 16.0543 10.8333 15.8333C10.8333 15.6123 10.7455 15.4004 10.5893 15.2441C10.433 15.0878 10.221 15 10 15C9.77898 15 9.56702 15.0878 9.41074 15.2441C9.25446 15.4004 9.16666 15.6123 9.16666 15.8333Z" stroke="#1F2937" stroke-width="1.5" stroke-linecap="round" stroke-linejoin="round"/>
<path d="M9.16666 4.16683C9.16666 4.38784 9.25446 4.5998 9.41074 4.75609C9.56702 4.91237 9.77898 5.00016 10 5.00016C10.221 5.00016 10.433 4.91237 10.5893 4.75609C10.7455 4.5998 10.8333 4.38784 10.8333 4.16683C10.8333 3.94582 10.7455 3.73385 10.5893 3.57757C10.433 3.42129 10.221 3.3335 10 3.3335C9.77898 3.3335 9.56702 3.42129 9.41074 3.57757C9.25446 3.73385 9.16666 3.94582 9.16666 4.16683Z" stroke="#1F2937" stroke-width="1.5" stroke-linecap="round" stroke-linejoin="round"/>
</svg>
