<svg width="24" height="24" viewBox="0 0 24 24" fill="none" xmlns="http://www.w3.org/2000/svg">
<path d="M10.9332 18.5H4.62957C4.01025 18.5 3.4163 18.2893 2.97838 17.9142C2.54046 17.5391 2.29443 17.0304 2.29443 16.5V4.5C2.29443 3.96957 2.54046 3.46086 2.97838 3.08579C3.4163 2.71071 4.01025 2.5 4.62957 2.5H13.9701C14.5894 2.5 15.1834 2.71071 15.6213 3.08579C16.0592 3.46086 16.3052 3.96957 16.3052 4.5V9.40429" stroke="#3B5A81" stroke-width="1.5" stroke-linecap="round" stroke-linejoin="round"/>
<path d="M5.91113 6.5H10.9111" stroke="#3B5A81" stroke-width="1.5" stroke-linecap="round" stroke-linejoin="round"/>
<path d="M5.91113 10.5H8.91113" stroke="#3B5A81" stroke-width="1.5" stroke-linecap="round" stroke-linejoin="round"/>
<path d="M21.7055 17.9049V13.0942C21.7051 12.8849 21.6494 12.6793 21.5441 12.4984C21.4387 12.3175 21.2874 12.1677 21.1055 12.064L16.9056 9.6593C16.7229 9.55491 16.5161 9.5 16.3056 9.5C16.0952 9.5 15.8884 9.55491 15.7056 9.6593L11.5057 12.064C11.1344 12.277 10.9058 12.67 10.9058 13.0948V17.9055C10.9058 18.3309 11.1344 18.7233 11.5057 18.9357L15.7056 21.3404C15.8884 21.4448 16.0952 21.4997 16.3056 21.4997C16.5161 21.4997 16.7229 21.4448 16.9056 21.3404L21.1055 18.9357C21.4769 18.7227 21.7055 18.3297 21.7055 17.9049Z" stroke="#B31942" stroke-width="1.5" stroke-linecap="round" stroke-linejoin="round"/>
<path d="M16.3057 21.4998V15.5" stroke="#B31942" stroke-width="1.5" stroke-linecap="round" stroke-linejoin="round"/>
<path d="M16.3057 15.5L21.5435 12.4761" stroke="#B31942" stroke-width="1.5" stroke-linecap="round" stroke-linejoin="round"/>
<path d="M11.0679 12.4761L16.3057 15.5" stroke="#B31942" stroke-width="1.5" stroke-linecap="round" stroke-linejoin="round"/>
</svg>
