<svg width="24" height="24" viewBox="0 0 24 24" fill="none" xmlns="http://www.w3.org/2000/svg">
<path d="M20.4127 13.4101L16.5609 15.6411C16.4058 15.7311 16.2108 15.7311 16.0507 15.6411L12.1989 13.4101C11.9238 13.25 11.8538 12.8748 12.0639 12.6397C12.2089 12.4746 12.374 12.3396 12.5491 12.2445L15.2603 10.7439C15.8406 10.4187 16.781 10.4187 17.3613 10.7439L20.0725 12.2445C20.2476 12.3396 20.4127 12.4796 20.5577 12.6397C20.7578 12.8748 20.6878 13.25 20.4127 13.4101Z" fill="#0A3161"/>
<path d="M16.0205 16.5716V19.9832C16.0205 20.3633 15.6354 20.6134 15.2952 20.4484C14.2647 19.9431 12.529 18.9977 12.529 18.9977C11.9187 18.6526 11.4185 17.7822 11.4185 17.0668V14.4857C11.4185 14.0905 11.8336 13.8404 12.1738 14.0355L15.7704 16.1214C15.9205 16.2164 16.0205 16.3865 16.0205 16.5716Z" fill="#0A3161"/>
<path d="M16.5908 16.5716V19.9832C16.5908 20.3633 16.976 20.6134 17.3162 20.4484C18.3466 19.9431 20.0824 18.9977 20.0824 18.9977C20.6927 18.6526 21.1929 17.7822 21.1929 17.0668V14.4857C21.1929 14.0905 20.7777 13.8404 20.4376 14.0355L16.8409 16.1214C16.6909 16.2164 16.5908 16.3865 16.5908 16.5716Z" fill="#0A3161"/>
<path fill-rule="evenodd" clip-rule="evenodd" d="M2.97838 17.9142C3.4163 18.2893 4.01025 18.5 4.62957 18.5H8.38861C9.49318 18.5 10.3886 17.6046 10.3886 16.5V13.725C10.3886 13.0262 10.7534 12.3781 11.3507 12.0154L15.3431 9.5916C15.9405 9.22894 16.3052 8.58081 16.3052 7.88199V4.5C16.3052 3.96957 16.0592 3.46086 15.6213 3.08579C15.1834 2.71071 14.5894 2.5 13.9701 2.5H4.62957C4.01025 2.5 3.4163 2.71071 2.97838 3.08579C2.54046 3.46086 2.29443 3.96957 2.29443 4.5V16.5C2.29443 17.0304 2.54046 17.5391 2.97838 17.9142ZM5.411 6.5C5.411 6.22386 5.63485 6 5.911 6H10.911C11.1871 6 11.411 6.22386 11.411 6.5C11.411 6.77614 11.1871 7 10.911 7H5.911C5.63485 7 5.411 6.77614 5.411 6.5ZM5.911 10C5.63485 10 5.411 10.2239 5.411 10.5C5.411 10.7761 5.63485 11 5.911 11H8.911C9.18714 11 9.411 10.7761 9.411 10.5C9.411 10.2239 9.18714 10 8.911 10H5.911Z" fill="#0A3161"/>
</svg>
