<svg width="24" height="24" viewBox="0 0 24 24" fill="none" xmlns="http://www.w3.org/2000/svg">
<path d="M8 9V4.85185C8 4.09549 8.31607 3.37011 8.87868 2.83529C9.44129 2.30046 10.2044 2 11 2C11.7956 2 12.5587 2.30046 13.1213 2.83529C13.6839 3.37011 14 4.09549 14 4.85185V9" stroke="#0A3161" stroke-width="1.5" stroke-linecap="round" stroke-linejoin="round"/>
<path d="M15.7336 16.6106L15.7331 16.6109C15.7078 16.6256 15.6668 16.6296 15.6277 16.6085L11.0779 13.9731C11.0778 13.9731 11.0778 13.973 11.0777 13.973C11.0486 13.956 11.0295 13.9275 11.0237 13.895C11.0181 13.8637 11.0265 13.8423 11.0396 13.8276L11.0396 13.8276L11.0424 13.8245C11.1798 13.668 11.3299 13.5476 11.4791 13.4666L11.4791 13.4666L11.4827 13.4646L14.6885 11.6902L14.6885 11.6902L14.6908 11.6889C14.9411 11.5486 15.3012 11.4644 15.6884 11.4644C16.0757 11.4644 16.4357 11.5486 16.6861 11.6889L16.6861 11.6889L16.6884 11.6902L19.8942 13.4646L19.8942 13.4646L19.8978 13.4666C20.0402 13.5438 20.1895 13.666 20.3319 13.8217C20.3418 13.8351 20.3499 13.8577 20.3436 13.8908C20.3369 13.9268 20.3162 13.9561 20.2874 13.973C20.2873 13.973 20.2872 13.9731 20.2871 13.9731L15.7336 16.6106Z" fill="#0A3161" stroke="#0A3161"/>
<path d="M15.3449 18.1438V22.1777C15.3449 22.6272 14.8895 22.9229 14.4873 22.7277C13.2688 22.1303 11.2164 21.0125 11.2164 21.0125C10.4948 20.6043 9.90332 19.5752 9.90332 18.7293V15.6773C9.90332 15.21 10.3942 14.9143 10.7965 15.145L15.0492 17.6114C15.2266 17.7238 15.3449 17.9249 15.3449 18.1438Z" fill="#0A3161"/>
<path d="M16.0195 18.1438V22.1777C16.0195 22.6272 16.475 22.9229 16.8772 22.7277C18.0956 22.1303 20.1481 21.0125 20.1481 21.0125C20.8697 20.6043 21.4611 19.5752 21.4611 18.7293V15.6773C21.4611 15.21 20.9702 14.9143 20.568 15.145L16.3153 17.6114C16.1378 17.7238 16.0195 17.9249 16.0195 18.1438Z" fill="#0A3161"/>
<path d="M4.82046 19.854C5.44441 20.3672 6.23937 20.6494 7.06151 20.6494H8.13849C8.69077 20.6494 9.13849 20.2017 9.13849 19.6494V18.9082V14.3526C9.13849 13.6317 9.52638 12.9666 10.1538 12.6117L14.7078 10.0357C15.3038 9.69862 16.0309 9.68984 16.6349 10.0125L18.0618 10.7747C18.6501 11.0889 19.3753 10.7501 19.5118 10.0973L19.7653 8.88478C19.8155 8.57129 19.7945 8.25107 19.7036 7.9461C19.6128 7.64112 19.4542 7.3586 19.2387 7.11789C19.0233 6.87718 18.7561 6.68398 18.4555 6.55154C18.1549 6.4191 17.8279 6.35055 17.4971 6.35059H4.48818C4.15734 6.35055 3.83041 6.4191 3.5298 6.55154C3.22918 6.68398 2.962 6.87718 2.74656 7.11789C2.53112 7.3586 2.37252 7.64112 2.28164 7.9461C2.19075 8.25107 2.16973 8.57129 2.22002 8.88478L3.65985 17.8512C3.78481 18.6303 4.19652 19.3407 4.82046 19.854Z" fill="#0A3161"/>
</svg>
