<svg width="24" height="24" viewBox="0 0 24 24" fill="none" xmlns="http://www.w3.org/2000/svg">
<path d="M12 7V10" stroke="#B31942" stroke-width="1.5" stroke-miterlimit="10" stroke-linecap="round"/>
<path d="M15 18C15 19.6486 13.6487 21 12 21C11.1802 21 10.4234 20.6577 9.88289 20.1171C9.34235 19.5766 9.00001 18.8198 9.00001 18" stroke="#1F2937" stroke-width="1.5" stroke-miterlimit="10"/>
<path d="M12.0132 3C8.70635 3 6.02849 5.70871 6.02849 9.05369V10.9625C6.02849 11.5806 5.77688 12.5077 5.46237 13.0349L4.32113 14.9619C3.62022 16.1527 4.10547 17.4798 5.39947 17.9161C9.69482 19.3613 14.3406 19.3613 18.636 17.9161C19.8491 17.507 20.3703 16.0709 19.7143 14.9619L18.5731 13.0349C18.2586 12.5077 18.007 11.5715 18.007 10.9625V9.05369C17.998 5.72689 15.3022 3 12.0132 3Z" stroke="#1F2937" stroke-width="1.5" stroke-miterlimit="10" stroke-linecap="round"/>
</svg>
