<svg width="14" height="14" viewBox="0 0 14 14" fill="none" xmlns="http://www.w3.org/2000/svg">
<path d="M1.84918 4.34009L7.00001 7.32091L12.1158 4.35757" stroke="#6B7280" stroke-linecap="round" stroke-linejoin="round"/>
<path d="M7 12.606V7.31519" stroke="#6B7280" stroke-linecap="round" stroke-linejoin="round"/>
<path d="M5.7925 1.44675L2.6775 3.17927C1.97167 3.5701 1.39418 4.55009 1.39418 5.35509V8.65094C1.39418 9.45594 1.97167 10.4359 2.6775 10.8268L5.7925 12.5593C6.4575 12.9268 7.54833 12.9268 8.21333 12.5593L11.3283 10.8268C12.0342 10.4359 12.6117 9.45594 12.6117 8.65094V5.35509C12.6117 4.55009 12.0342 3.5701 11.3283 3.17927L8.21333 1.44675C7.5425 1.07341 6.4575 1.07341 5.7925 1.44675Z" stroke="#6B7280" stroke-linecap="round" stroke-linejoin="round"/>
<path d="M9.91667 7.72352V5.58854L4.38084 2.39185" stroke="#6B7280" stroke-linecap="round" stroke-linejoin="round"/>
</svg>
