<svg width="20" height="20" viewBox="0 0 20 20" fill="none" xmlns="http://www.w3.org/2000/svg">
<path d="M7.75833 12.2498L9.00833 13.4998L12.3417 10.1665" stroke="#B31942" stroke-width="1.5" stroke-linecap="round" stroke-linejoin="round"/>
<path d="M8.33332 4.99984H11.6667C13.3333 4.99984 13.3333 4.1665 13.3333 3.33317C13.3333 1.6665 12.5 1.6665 11.6667 1.6665H8.33332C7.49999 1.6665 6.66666 1.6665 6.66666 3.33317C6.66666 4.99984 7.49999 4.99984 8.33332 4.99984Z" stroke="#0A3161" stroke-width="1.5" stroke-miterlimit="10" stroke-linecap="round" stroke-linejoin="round"/>
<path d="M13.3333 3.34961C16.1083 3.49961 17.5 4.52461 17.5 8.33294V13.3329C17.5 16.6663 16.6667 18.3329 12.5 18.3329H7.5C3.33333 18.3329 2.5 16.6663 2.5 13.3329V8.33294C2.5 4.53294 3.89167 3.49961 6.66667 3.34961" stroke="#0A3161" stroke-width="1.5" stroke-miterlimit="10" stroke-linecap="round" stroke-linejoin="round"/>
</svg>
