<svg width="20" height="20" viewBox="0 0 20 20" fill="none" xmlns="http://www.w3.org/2000/svg">
<g clip-path="url(#clip0_988_8215)">
<path d="M4.68988 15.7978C5.87212 17.3386 7.57816 18.3945 9.48864 18.768C11.3991 19.1414 13.3831 18.8067 15.0691 17.8266C16.7551 16.8465 18.0276 15.2881 18.6484 13.4431C19.2692 11.5982 19.1957 9.5932 18.4417 7.80347C17.6877 6.01373 16.3049 4.56195 14.5521 3.71989C12.7993 2.87783 10.7967 2.70323 8.91921 3.22876C7.04167 3.75429 5.41792 4.94393 4.35191 6.57498C3.2859 8.20603 2.8507 10.1667 3.1278 12.0899M0.705974 9.31043L2.6938 12.3405L5.89575 10.5078" stroke="#0A3161" stroke-width="1.5" stroke-linecap="round" stroke-linejoin="round"/>
<path d="M15.2588 12.6402V9.27581C15.2586 9.1294 15.2196 8.98566 15.146 8.85914C15.0723 8.73263 14.9665 8.62783 14.8392 8.55536L11.902 6.87361C11.7743 6.80061 11.6296 6.76221 11.4824 6.76221C11.3353 6.76221 11.1906 6.80061 11.0628 6.87361L8.12565 8.55536C7.86592 8.70432 7.70605 8.97916 7.70605 9.27623V12.6406C7.70605 12.9381 7.86592 13.2125 8.12565 13.361L11.0628 15.0428C11.1906 15.1158 11.3353 15.1542 11.4824 15.1542C11.6296 15.1542 11.7743 15.1158 11.902 15.0428L14.8392 13.361C15.099 13.2121 15.2588 12.9372 15.2588 12.6402Z" stroke="#B31942" stroke-width="1.5" stroke-linecap="round" stroke-linejoin="round"/>
<path d="M11.4824 15.1545V10.9585" stroke="#B31942" stroke-width="1.5" stroke-linecap="round" stroke-linejoin="round"/>
<path d="M11.4824 10.9585L15.1455 8.84375" stroke="#B31942" stroke-width="1.5" stroke-linecap="round" stroke-linejoin="round"/>
<path d="M7.81934 8.84375L11.4824 10.9585" stroke="#B31942" stroke-width="1.5" stroke-linecap="round" stroke-linejoin="round"/>
</g>
<defs>
<clipPath id="clip0_988_8215">
<rect width="20" height="20" fill="white"/>
</clipPath>
</defs>
</svg>
