<svg width="163" height="100" viewBox="0 0 163 100" fill="none" xmlns="http://www.w3.org/2000/svg">
<path d="M123.667 50.0002C123.667 73.0002 105 91.6668 81.9999 91.6668C58.9999 91.6668 40.3333 73.0002 40.3333 50.0002C40.3333 27.0002 58.9999 8.3335 81.9999 8.3335C105 8.3335 123.667 27.0002 123.667 50.0002Z" stroke="#0A3161" stroke-width="5" stroke-linecap="round" stroke-linejoin="round"/>
<path d="M97.4583 63.2503L84.5416 55.542C82.2916 54.2087 80.4583 51.0003 80.4583 48.3753V31.292" stroke="#B31942" stroke-width="5" stroke-linecap="round" stroke-linejoin="round"/>
<path d="M0.207031 46.6567H16.207" stroke="#0A3161" stroke-width="2"/>
<path d="M162.793 47H146.793" stroke="#0A3161" stroke-width="2"/>
<path d="M11.207 90.3135L22.5207 78.9998" stroke="#0A3161" stroke-width="2"/>
<path d="M152.818 90.3135L142.207 78.3384" stroke="#0A3161" stroke-width="2"/>
<path d="M11.207 3L22.5207 14.3137" stroke="#0A3161" stroke-width="2"/>
<path d="M152.818 3L142.207 14.9751" stroke="#0A3161" stroke-width="2"/>
</svg>
