<svg width="20" height="22" viewBox="0 0 20 22" fill="none" xmlns="http://www.w3.org/2000/svg">
<path d="M10.1084 20.7499V11" stroke="#B31942" stroke-width="1.5" stroke-linecap="round" stroke-linejoin="round"/>
<path d="M10.1084 11.0009L18.62 6.08691" stroke="#B31942" stroke-width="1.5" stroke-linecap="round" stroke-linejoin="round"/>
<path d="M1.59665 6.08691L10.1083 11.0009" stroke="#B31942" stroke-width="1.5" stroke-linecap="round" stroke-linejoin="round"/>
<path d="M18.8832 14.9081V7.09066C18.8826 6.75046 18.7921 6.41646 18.6209 6.12248C18.4497 5.8285 18.2038 5.58499 17.9082 5.41661L11.0833 1.50886C10.7863 1.33922 10.4503 1.25 10.1083 1.25C9.76631 1.25 9.43025 1.33922 9.13331 1.50886L2.30839 5.41661C1.70487 5.76273 1.3334 6.40135 1.3334 7.09164V14.9091C1.3334 15.6004 1.70487 16.238 2.30839 16.5831L9.13331 20.4909C9.43025 20.6605 9.76631 20.7497 10.1083 20.7497C10.4503 20.7497 10.7863 20.6605 11.0833 20.4909L17.9082 16.5831C18.5117 16.237 18.8832 15.5984 18.8832 14.9081Z" stroke="#0A3161" stroke-width="1.5" stroke-linecap="round" stroke-linejoin="round"/>
</svg>
