<svg width="16" height="16" viewBox="0 0 16 16" fill="none" xmlns="http://www.w3.org/2000/svg">
<path d="M1.37744 4.58008L7.99993 8.41257L14.5774 4.60255" stroke="#6B7280" stroke-linecap="round" stroke-linejoin="round"/>
<path d="M7.99988 15.2078V8.40527" stroke="#6B7280" stroke-linecap="round" stroke-linejoin="round"/>
<path d="M6.44746 0.86L2.44247 3.08752C1.53497 3.59002 0.79248 4.85001 0.79248 5.88501V10.1225C0.79248 11.1575 1.53497 12.4175 2.44247 12.92L6.44746 15.1475C7.30246 15.62 8.70496 15.62 9.55996 15.1475L13.565 12.92C14.4725 12.4175 15.215 11.1575 15.215 10.1225V5.88501C15.215 4.85001 14.4725 3.59002 13.565 3.08752L9.55996 0.86C8.69746 0.38 7.30246 0.38 6.44746 0.86Z" stroke="#6B7280" stroke-linecap="round" stroke-linejoin="round"/>
<path d="M11.7499 8.93021V6.18523L4.63245 2.0752" stroke="#6B7280" stroke-linecap="round" stroke-linejoin="round"/>
</svg>
