<svg width="17" height="18" viewBox="0 0 17 18" fill="none" xmlns="http://www.w3.org/2000/svg">
<path d="M4.57 16.5H12.43C14.5 16.5 15.325 15.2325 15.4225 13.6875L15.8125 7.4925C15.9175 5.8725 14.6275 4.5 13 4.5C12.5425 4.5 12.1225 4.2375 11.9125 3.8325L11.3725 2.745C11.0275 2.0625 10.1275 1.5 9.3625 1.5H7.645C6.8725 1.5 5.9725 2.0625 5.6275 2.745L5.0875 3.8325C4.8775 4.2375 4.4575 4.5 4 4.5C2.3725 4.5 1.0825 5.8725 1.1875 7.4925L1.5775 13.6875C1.6675 15.2325 2.5 16.5 4.57 16.5Z" stroke="#1F2937" stroke-width="1.5" stroke-linecap="round" stroke-linejoin="round"/>
<path d="M7.375 6H9.625" stroke="#0A3161" stroke-width="1.5" stroke-linecap="round" stroke-linejoin="round"/>
<path d="M8.5 13.5C9.8425 13.5 10.9375 12.405 10.9375 11.0625C10.9375 9.72 9.8425 8.625 8.5 8.625C7.1575 8.625 6.0625 9.72 6.0625 11.0625C6.0625 12.405 7.1575 13.5 8.5 13.5Z" stroke="#B31942" stroke-width="1.5" stroke-linecap="round" stroke-linejoin="round"/>
</svg>
