<svg width="18" height="22" viewBox="0 0 18 22" fill="none" xmlns="http://www.w3.org/2000/svg">
<path d="M9 14.5C11.21 14.5 13 12.71 13 10.5V5C13 2.79 11.21 1 9 1C6.79 1 5 2.79 5 5V10.5C5 12.71 6.79 14.5 9 14.5Z" stroke="#1F2937" stroke-width="1.5" stroke-linecap="round" stroke-linejoin="round"/>
<path d="M1.3501 8.65002V10.35C1.3501 14.57 4.7801 18 9.0001 18C13.2201 18 16.6501 14.57 16.6501 10.35V8.65002" stroke="#1F2937" stroke-width="1.5" stroke-linecap="round" stroke-linejoin="round"/>
<path d="M7.61011 5.43C8.51011 5.1 9.49011 5.1 10.3901 5.43" stroke="#1F2937" stroke-width="1.5" stroke-linecap="round" stroke-linejoin="round"/>
<path d="M8.2002 7.54995C8.7302 7.40995 9.2802 7.40995 9.8102 7.54995" stroke="#1F2937" stroke-width="1.5" stroke-linecap="round" stroke-linejoin="round"/>
<path d="M9 18V21" stroke="#1F2937" stroke-width="1.5" stroke-linecap="round" stroke-linejoin="round"/>
</svg>
