<svg width="20" height="20" viewBox="0 0 20 20" fill="none" xmlns="http://www.w3.org/2000/svg">
<path d="M10.8333 7.5H5.83331" stroke="#B31942" stroke-width="1.5" stroke-linecap="round" stroke-linejoin="round"/>
<path d="M14.5666 8.79149C14.2166 9.13316 14.0167 9.62483 14.0667 10.1498C14.1417 11.0498 14.9666 11.7082 15.8666 11.7082H17.5V12.9165C17.5 15.4165 15.8333 17.0832 13.3333 17.0832H5.83332C3.33332 17.0832 1.66666 15.4165 1.66666 12.9165V7.08317C1.66666 4.8165 3.03333 3.23317 5.15833 2.9665C5.37499 2.93317 5.59999 2.9165 5.83332 2.9165H13.3333C13.55 2.9165 13.7583 2.92483 13.9583 2.95816C16.1083 3.20816 17.5 4.79984 17.5 7.08317V8.29151H15.7666C15.3 8.29151 14.875 8.47483 14.5666 8.79149Z" stroke="#0A3161" stroke-width="1.5" stroke-linecap="round" stroke-linejoin="round"/>
<path d="M18.3333 9.14147V10.8582C18.3333 11.3165 17.9667 11.6915 17.5 11.7082H15.8667C14.9667 11.7082 14.1417 11.0498 14.0667 10.1498C14.0167 9.62482 14.2167 9.13315 14.5667 8.79148C14.875 8.47482 15.3 8.2915 15.7667 8.2915H17.5C17.9667 8.30817 18.3333 8.68314 18.3333 9.14147Z" stroke="#B31942" stroke-width="1.5" stroke-linecap="round" stroke-linejoin="round"/>
</svg>
