<svg width="171" height="117" viewBox="0 0 171 117" fill="none" xmlns="http://www.w3.org/2000/svg">
<rect x="35.75" y="2" width="100" height="100" rx="50" fill="#E7EAEF"/>
<g clip-path="url(#clip0_871_11121)">
<path d="M78.25 49.5C78.25 51.4891 79.0402 53.3968 80.4467 54.8033C81.8532 56.2098 83.7609 57 85.75 57C87.7391 57 89.6468 56.2098 91.0533 54.8033C92.4598 53.3968 93.25 51.4891 93.25 49.5C93.25 47.5109 92.4598 45.6032 91.0533 44.1967C89.6468 42.7902 87.7391 42 85.75 42C83.7609 42 81.8532 42.7902 80.4467 44.1967C79.0402 45.6032 78.25 47.5109 78.25 49.5Z" stroke="#B31942" stroke-width="3" stroke-linecap="round" stroke-linejoin="round"/>
<path d="M99.8925 63.6425L89.285 74.25C88.3475 75.1866 87.0765 75.7127 85.7513 75.7127C84.426 75.7127 83.155 75.1866 82.2175 74.25L71.6075 63.6425C68.8106 60.8454 66.9058 57.2818 66.1342 53.4022C65.3626 49.5226 65.7587 45.5013 67.2725 41.8468C68.7863 38.1924 71.3498 35.0689 74.6387 32.8713C77.9277 30.6737 81.7944 29.5007 85.75 29.5007C89.7056 29.5007 93.5723 30.6737 96.8613 32.8713C100.15 35.0689 102.714 38.1924 104.227 41.8468C105.741 45.5013 106.137 49.5226 105.366 53.4022C104.594 57.2818 102.689 60.8454 99.8925 63.6425Z" stroke="#0A3161" stroke-width="3" stroke-linecap="round" stroke-linejoin="round"/>
</g>
<rect x="141" y="102.5" width="6" height="6" rx="3" fill="#9DADC0"/>
<rect x="82" y="113" width="4" height="4" rx="2" fill="#D98CA1"/>
<rect x="114" width="6" height="6" rx="3" fill="#D98CA1"/>
<rect x="58" width="4" height="4" rx="2" fill="#9DADC0"/>
<rect y="6" width="20" height="20" rx="10" fill="#D98CA1"/>
<rect x="150.5" y="16" width="20" height="20" rx="10" fill="#9DADC0"/>
<rect x="155" y="71" width="10" height="10" rx="5" fill="#D98CA1"/>
<rect x="19" y="94.5" width="10" height="10" rx="5" fill="#9DADC0"/>
<rect x="10" y="68" width="6" height="6" rx="3" fill="#D98CA1"/>
<defs>
<clipPath id="clip0_871_11121">
<rect width="60" height="60" fill="white" transform="translate(55.75 22)"/>
</clipPath>
</defs>
</svg>
