<svg width="28" height="28" viewBox="0 0 28 28" fill="none" xmlns="http://www.w3.org/2000/svg">
<path d="M8.16668 21C6.711 21 5.31494 20.4469 4.28562 19.4623C3.2563 18.4778 2.67804 17.1424 2.67804 15.75C2.67804 14.3576 3.2563 13.0223 4.28562 12.0377C5.31494 11.0531 6.711 10.5 8.16668 10.5C8.51047 8.9684 9.51623 7.62242 10.9627 6.75819C11.6789 6.33027 12.4818 6.0335 13.3254 5.88482C14.1691 5.73615 15.037 5.73848 15.8796 5.89169C16.7223 6.0449 17.5232 6.34598 18.2365 6.77775C18.9499 7.20952 19.5618 7.76351 20.0372 8.40811C20.5127 9.0527 20.8424 9.77527 21.0076 10.5346C21.1728 11.2938 21.1702 12.075 21 12.8334H22.1667C23.2496 12.8334 24.2883 13.2636 25.054 14.0293C25.8198 14.7951 26.25 15.8337 26.25 16.9167C26.25 17.9997 25.8198 19.0383 25.054 19.804C24.2883 20.5698 23.2496 21 22.1667 21H21" stroke="#1F2937" stroke-width="1.5" stroke-linecap="round" stroke-linejoin="round"/>
<path d="M10.5 17.5L14 14L17.5 17.5" stroke="#1F2937" stroke-width="1.5" stroke-linecap="round" stroke-linejoin="round"/>
<path d="M14 14V24.5" stroke="#1F2937" stroke-width="1.5" stroke-linecap="round" stroke-linejoin="round"/>
</svg>
