<svg width="24" height="24" viewBox="0 0 24 24" fill="none" xmlns="http://www.w3.org/2000/svg">
<path d="M12.1441 11C12.0541 10.991 11.9459 10.991 11.8468 11C9.7027 10.9278 8 9.16911 8 7.00451C8 4.79481 9.78378 3 12 3C14.2072 3 16 4.79481 16 7.00451C15.991 9.16911 14.2883 10.9278 12.1441 11Z" stroke="#B31942" stroke-width="1.5" stroke-linecap="round" stroke-linejoin="round"/>
<path d="M7.59677 14.8584C5.46774 16.3614 5.46774 18.8108 7.59677 20.3046C10.0161 22.0118 13.9839 22.0118 16.4032 20.3046C18.5323 18.8015 18.5323 16.3521 16.4032 14.8584C13.9927 13.1605 10.0249 13.1605 7.59677 14.8584Z" stroke="#0A3161" stroke-width="1.5" stroke-linecap="round" stroke-linejoin="round"/>
</svg>
